<mxfile host="app.diagrams.net" agent="Mozilla/5.0 (Windows NT 10.0; Win64; x64) AppleWebKit/537.36 (KHTML, like Gecko) Chrome/127.0.0.0 Safari/537.36 OPR/113.0.0.0" version="24.7.17">
  <diagram name="Page-1" id="sB857h8_IYKEjtVShUcO">
    <mxGraphModel dx="2018" dy="1146" grid="0" gridSize="10" guides="1" tooltips="1" connect="1" arrows="1" fold="1" page="0" pageScale="1" pageWidth="850" pageHeight="1100" math="0" shadow="0">
      <root>
        <mxCell id="0" />
        <mxCell id="1" parent="0" />
        <mxCell id="OhpfZ9pZvV3yuUP48iXX-1" value="Screenplay" style="rounded=0;whiteSpace=wrap;html=1;fontFamily=Helvetica;spacing=3;fontSize=20;" parent="1" vertex="1">
          <mxGeometry x="840" y="156.5" width="120" height="60" as="geometry" />
        </mxCell>
        <mxCell id="yZGT_BtKmztro6Jw3oL_-2" style="edgeStyle=none;shape=link;rounded=0;orthogonalLoop=1;jettySize=auto;html=1;exitX=0.5;exitY=1;exitDx=0;exitDy=0;entryX=0;entryY=0;entryDx=0;entryDy=0;" parent="1" source="OhpfZ9pZvV3yuUP48iXX-2" target="OhpfZ9pZvV3yuUP48iXX-41" edge="1">
          <mxGeometry relative="1" as="geometry" />
        </mxCell>
        <mxCell id="OhpfZ9pZvV3yuUP48iXX-2" value="Movie" style="rounded=0;whiteSpace=wrap;html=1;fontFamily=Helvetica;spacing=3;fontSize=20;" parent="1" vertex="1">
          <mxGeometry x="507" y="169" width="120" height="60" as="geometry" />
        </mxCell>
        <mxCell id="OhpfZ9pZvV3yuUP48iXX-3" style="edgeStyle=none;curved=1;rounded=0;orthogonalLoop=1;jettySize=auto;html=1;exitX=0;exitY=0.5;exitDx=0;exitDy=0;entryX=1;entryY=0.5;entryDx=0;entryDy=0;fontSize=20;startSize=8;endSize=8;fontFamily=Helvetica;spacing=3;" parent="1" source="OhpfZ9pZvV3yuUP48iXX-4" target="OhpfZ9pZvV3yuUP48iXX-56" edge="1">
          <mxGeometry relative="1" as="geometry" />
        </mxCell>
        <mxCell id="OhpfZ9pZvV3yuUP48iXX-4" value="Scene" style="rounded=0;whiteSpace=wrap;html=1;fontFamily=Helvetica;spacing=3;fontSize=20;" parent="1" vertex="1">
          <mxGeometry x="888" y="675.5" width="120" height="60" as="geometry" />
        </mxCell>
        <mxCell id="OhpfZ9pZvV3yuUP48iXX-5" style="edgeStyle=none;curved=1;rounded=0;orthogonalLoop=1;jettySize=auto;html=1;exitX=0.5;exitY=0;exitDx=0;exitDy=0;entryX=0.5;entryY=1;entryDx=0;entryDy=0;fontSize=20;startSize=8;endSize=8;fontFamily=Helvetica;spacing=3;" parent="1" source="OhpfZ9pZvV3yuUP48iXX-6" target="OhpfZ9pZvV3yuUP48iXX-55" edge="1">
          <mxGeometry relative="1" as="geometry" />
        </mxCell>
        <mxCell id="OhpfZ9pZvV3yuUP48iXX-6" value="Actor" style="rounded=0;whiteSpace=wrap;html=1;fontFamily=Helvetica;spacing=3;fontSize=20;" parent="1" vertex="1">
          <mxGeometry x="943" y="886" width="120" height="60" as="geometry" />
        </mxCell>
        <mxCell id="OhpfZ9pZvV3yuUP48iXX-7" style="edgeStyle=none;curved=1;rounded=0;orthogonalLoop=1;jettySize=auto;html=1;exitX=1;exitY=1;exitDx=0;exitDy=0;fontSize=20;startSize=8;endSize=8;fontFamily=Helvetica;spacing=3;" parent="1" source="OhpfZ9pZvV3yuUP48iXX-8" target="OhpfZ9pZvV3yuUP48iXX-2" edge="1">
          <mxGeometry relative="1" as="geometry" />
        </mxCell>
        <mxCell id="OhpfZ9pZvV3yuUP48iXX-8" value="&lt;u&gt;movieid&lt;/u&gt;" style="ellipse;whiteSpace=wrap;html=1;fontFamily=Helvetica;spacing=3;fontSize=20;" parent="1" vertex="1">
          <mxGeometry x="348" y="71" width="121" height="34" as="geometry" />
        </mxCell>
        <mxCell id="OhpfZ9pZvV3yuUP48iXX-9" style="edgeStyle=none;curved=1;rounded=0;orthogonalLoop=1;jettySize=auto;html=1;exitX=0.5;exitY=1;exitDx=0;exitDy=0;fontSize=20;startSize=8;endSize=8;fontFamily=Helvetica;spacing=3;" parent="1" source="OhpfZ9pZvV3yuUP48iXX-10" target="OhpfZ9pZvV3yuUP48iXX-2" edge="1">
          <mxGeometry relative="1" as="geometry" />
        </mxCell>
        <mxCell id="OhpfZ9pZvV3yuUP48iXX-10" value="title" style="ellipse;whiteSpace=wrap;html=1;fontFamily=Helvetica;spacing=3;fontSize=20;" parent="1" vertex="1">
          <mxGeometry x="519" y="44" width="74" height="30" as="geometry" />
        </mxCell>
        <mxCell id="OhpfZ9pZvV3yuUP48iXX-11" style="edgeStyle=none;curved=1;rounded=0;orthogonalLoop=1;jettySize=auto;html=1;exitX=0;exitY=1;exitDx=0;exitDy=0;entryX=0.75;entryY=0;entryDx=0;entryDy=0;fontSize=20;startSize=8;endSize=8;fontFamily=Helvetica;spacing=3;" parent="1" source="OhpfZ9pZvV3yuUP48iXX-12" target="OhpfZ9pZvV3yuUP48iXX-2" edge="1">
          <mxGeometry relative="1" as="geometry" />
        </mxCell>
        <mxCell id="OhpfZ9pZvV3yuUP48iXX-12" value="releaseyear" style="ellipse;whiteSpace=wrap;html=1;fontFamily=Helvetica;spacing=3;fontSize=20;" parent="1" vertex="1">
          <mxGeometry x="615" y="78" width="148" height="34" as="geometry" />
        </mxCell>
        <mxCell id="OhpfZ9pZvV3yuUP48iXX-13" style="edgeStyle=none;curved=1;rounded=0;orthogonalLoop=1;jettySize=auto;html=1;exitX=1;exitY=0.5;exitDx=0;exitDy=0;entryX=0;entryY=0.5;entryDx=0;entryDy=0;fontSize=20;startSize=8;endSize=8;fontFamily=Helvetica;spacing=3;" parent="1" source="OhpfZ9pZvV3yuUP48iXX-14" target="OhpfZ9pZvV3yuUP48iXX-59" edge="1">
          <mxGeometry relative="1" as="geometry" />
        </mxCell>
        <mxCell id="OhpfZ9pZvV3yuUP48iXX-14" value="&lt;u&gt;takeid&lt;/u&gt;" style="ellipse;whiteSpace=wrap;html=1;fontFamily=Helvetica;spacing=3;fontSize=20;" parent="1" vertex="1">
          <mxGeometry x="122" y="986" width="118.5" height="37" as="geometry" />
        </mxCell>
        <mxCell id="OhpfZ9pZvV3yuUP48iXX-15" style="edgeStyle=none;curved=1;rounded=0;orthogonalLoop=1;jettySize=auto;html=1;exitX=0;exitY=0.5;exitDx=0;exitDy=0;entryX=0.75;entryY=1;entryDx=0;entryDy=0;fontSize=20;startSize=8;endSize=8;fontFamily=Helvetica;spacing=3;" parent="1" source="OhpfZ9pZvV3yuUP48iXX-16" target="OhpfZ9pZvV3yuUP48iXX-59" edge="1">
          <mxGeometry relative="1" as="geometry">
            <mxPoint x="385.5" y="1016.5" as="targetPoint" />
          </mxGeometry>
        </mxCell>
        <mxCell id="OhpfZ9pZvV3yuUP48iXX-16" value="takenumber" style="ellipse;whiteSpace=wrap;html=1;fontFamily=Helvetica;spacing=3;fontSize=20;" parent="1" vertex="1">
          <mxGeometry x="369.5" y="1050.5" width="164.5" height="43" as="geometry" />
        </mxCell>
        <mxCell id="OhpfZ9pZvV3yuUP48iXX-17" style="edgeStyle=none;curved=1;rounded=0;orthogonalLoop=1;jettySize=auto;html=1;exitX=0;exitY=0.5;exitDx=0;exitDy=0;entryX=0.75;entryY=1;entryDx=0;entryDy=0;fontSize=20;startSize=8;endSize=8;fontFamily=Helvetica;spacing=3;" parent="1" source="OhpfZ9pZvV3yuUP48iXX-18" target="OhpfZ9pZvV3yuUP48iXX-4" edge="1">
          <mxGeometry relative="1" as="geometry" />
        </mxCell>
        <mxCell id="OhpfZ9pZvV3yuUP48iXX-18" value="&lt;u&gt;scenid&lt;/u&gt;" style="ellipse;whiteSpace=wrap;html=1;fontFamily=Helvetica;spacing=3;fontSize=20;" parent="1" vertex="1">
          <mxGeometry x="1013.5" y="753.5" width="145.5" height="36" as="geometry" />
        </mxCell>
        <mxCell id="OhpfZ9pZvV3yuUP48iXX-19" style="edgeStyle=none;curved=1;rounded=0;orthogonalLoop=1;jettySize=auto;html=1;exitX=0.5;exitY=1;exitDx=0;exitDy=0;fontSize=20;startSize=8;endSize=8;entryX=0.75;entryY=0;entryDx=0;entryDy=0;fontFamily=Helvetica;spacing=3;" parent="1" source="OhpfZ9pZvV3yuUP48iXX-20" target="OhpfZ9pZvV3yuUP48iXX-4" edge="1">
          <mxGeometry relative="1" as="geometry">
            <mxPoint x="1100.3611111111109" y="605.6666531032986" as="targetPoint" />
          </mxGeometry>
        </mxCell>
        <mxCell id="OhpfZ9pZvV3yuUP48iXX-20" value="storylocation" style="ellipse;whiteSpace=wrap;html=1;fontFamily=Helvetica;spacing=3;fontSize=20;" parent="1" vertex="1">
          <mxGeometry x="987" y="536" width="169" height="41" as="geometry" />
        </mxCell>
        <mxCell id="OhpfZ9pZvV3yuUP48iXX-21" style="edgeStyle=none;curved=1;rounded=0;orthogonalLoop=1;jettySize=auto;html=1;exitX=0;exitY=0.5;exitDx=0;exitDy=0;entryX=1;entryY=0.5;entryDx=0;entryDy=0;fontSize=20;startSize=8;endSize=8;fontFamily=Helvetica;spacing=3;" parent="1" source="OhpfZ9pZvV3yuUP48iXX-22" target="OhpfZ9pZvV3yuUP48iXX-4" edge="1">
          <mxGeometry relative="1" as="geometry" />
        </mxCell>
        <mxCell id="OhpfZ9pZvV3yuUP48iXX-22" value="filminglocation" style="ellipse;whiteSpace=wrap;html=1;fontFamily=Helvetica;spacing=3;fontSize=20;" parent="1" vertex="1">
          <mxGeometry x="1062.5" y="691.5" width="191.5" height="39" as="geometry" />
        </mxCell>
        <mxCell id="OhpfZ9pZvV3yuUP48iXX-23" style="edgeStyle=none;curved=1;rounded=0;orthogonalLoop=1;jettySize=auto;html=1;exitX=0.5;exitY=1;exitDx=0;exitDy=0;entryX=0.5;entryY=0;entryDx=0;entryDy=0;fontSize=20;startSize=8;endSize=8;fontFamily=Helvetica;spacing=3;" parent="1" source="OhpfZ9pZvV3yuUP48iXX-24" target="OhpfZ9pZvV3yuUP48iXX-1" edge="1">
          <mxGeometry relative="1" as="geometry" />
        </mxCell>
        <mxCell id="OhpfZ9pZvV3yuUP48iXX-24" value="&lt;u&gt;screenplayid&lt;/u&gt;" style="ellipse;whiteSpace=wrap;html=1;fontFamily=Helvetica;spacing=3;fontSize=20;" parent="1" vertex="1">
          <mxGeometry x="844" y="40" width="137" height="53.5" as="geometry" />
        </mxCell>
        <mxCell id="OhpfZ9pZvV3yuUP48iXX-25" style="edgeStyle=none;curved=1;rounded=0;orthogonalLoop=1;jettySize=auto;html=1;exitX=0;exitY=0.5;exitDx=0;exitDy=0;entryX=0.75;entryY=0;entryDx=0;entryDy=0;fontSize=20;startSize=8;endSize=8;fontFamily=Helvetica;spacing=3;" parent="1" source="OhpfZ9pZvV3yuUP48iXX-26" target="OhpfZ9pZvV3yuUP48iXX-1" edge="1">
          <mxGeometry relative="1" as="geometry" />
        </mxCell>
        <mxCell id="OhpfZ9pZvV3yuUP48iXX-26" value="title" style="ellipse;whiteSpace=wrap;html=1;fontFamily=Helvetica;spacing=3;fontSize=20;" parent="1" vertex="1">
          <mxGeometry x="991" y="78.5" width="62" height="37" as="geometry" />
        </mxCell>
        <mxCell id="OhpfZ9pZvV3yuUP48iXX-27" style="edgeStyle=none;curved=1;rounded=0;orthogonalLoop=1;jettySize=auto;html=1;exitX=0;exitY=0.5;exitDx=0;exitDy=0;entryX=1;entryY=0.25;entryDx=0;entryDy=0;fontSize=20;startSize=8;endSize=8;fontFamily=Helvetica;spacing=3;" parent="1" source="OhpfZ9pZvV3yuUP48iXX-28" target="OhpfZ9pZvV3yuUP48iXX-1" edge="1">
          <mxGeometry relative="1" as="geometry" />
        </mxCell>
        <mxCell id="OhpfZ9pZvV3yuUP48iXX-28" value="author" style="ellipse;whiteSpace=wrap;html=1;fontFamily=Helvetica;spacing=3;fontSize=20;" parent="1" vertex="1">
          <mxGeometry x="1005" y="166.5" width="73" height="34" as="geometry" />
        </mxCell>
        <mxCell id="OhpfZ9pZvV3yuUP48iXX-29" style="edgeStyle=none;curved=1;rounded=0;orthogonalLoop=1;jettySize=auto;html=1;exitX=0;exitY=1;exitDx=0;exitDy=0;entryX=1;entryY=0.25;entryDx=0;entryDy=0;fontSize=20;startSize=8;endSize=8;fontFamily=Helvetica;spacing=3;" parent="1" source="OhpfZ9pZvV3yuUP48iXX-30" target="OhpfZ9pZvV3yuUP48iXX-6" edge="1">
          <mxGeometry relative="1" as="geometry" />
        </mxCell>
        <mxCell id="OhpfZ9pZvV3yuUP48iXX-30" value="&lt;u&gt;actorid&lt;/u&gt;" style="ellipse;whiteSpace=wrap;html=1;fontFamily=Helvetica;spacing=3;fontSize=20;" parent="1" vertex="1">
          <mxGeometry x="1100.5" y="837" width="124.5" height="43" as="geometry" />
        </mxCell>
        <mxCell id="OhpfZ9pZvV3yuUP48iXX-31" style="edgeStyle=none;curved=1;rounded=0;orthogonalLoop=1;jettySize=auto;html=1;exitX=0;exitY=0;exitDx=0;exitDy=0;entryX=0.75;entryY=1;entryDx=0;entryDy=0;fontSize=20;startSize=8;endSize=8;fontFamily=Helvetica;spacing=3;" parent="1" source="OhpfZ9pZvV3yuUP48iXX-32" target="OhpfZ9pZvV3yuUP48iXX-6" edge="1">
          <mxGeometry relative="1" as="geometry" />
        </mxCell>
        <mxCell id="OhpfZ9pZvV3yuUP48iXX-32" value="name" style="ellipse;whiteSpace=wrap;html=1;fontFamily=Helvetica;spacing=3;fontSize=20;" parent="1" vertex="1">
          <mxGeometry x="1109" y="974" width="114" height="29" as="geometry" />
        </mxCell>
        <mxCell id="OhpfZ9pZvV3yuUP48iXX-33" style="edgeStyle=none;curved=1;rounded=0;orthogonalLoop=1;jettySize=auto;html=1;exitX=0;exitY=0;exitDx=0;exitDy=0;entryX=0.25;entryY=1;entryDx=0;entryDy=0;fontSize=20;startSize=8;endSize=8;fontFamily=Helvetica;spacing=3;" parent="1" source="OhpfZ9pZvV3yuUP48iXX-34" target="OhpfZ9pZvV3yuUP48iXX-6" edge="1">
          <mxGeometry relative="1" as="geometry" />
        </mxCell>
        <mxCell id="OhpfZ9pZvV3yuUP48iXX-34" value="phonenumber" style="ellipse;whiteSpace=wrap;html=1;fontFamily=Helvetica;spacing=3;fontSize=20;" parent="1" vertex="1">
          <mxGeometry x="989" y="1000" width="146" height="75" as="geometry" />
        </mxCell>
        <mxCell id="OhpfZ9pZvV3yuUP48iXX-35" style="edgeStyle=none;curved=1;rounded=0;orthogonalLoop=1;jettySize=auto;html=1;exitX=0.5;exitY=0;exitDx=0;exitDy=0;entryX=0;entryY=0.75;entryDx=0;entryDy=0;fontSize=20;startSize=8;endSize=8;fontFamily=Helvetica;spacing=3;" parent="1" source="OhpfZ9pZvV3yuUP48iXX-36" target="OhpfZ9pZvV3yuUP48iXX-6" edge="1">
          <mxGeometry relative="1" as="geometry" />
        </mxCell>
        <mxCell id="OhpfZ9pZvV3yuUP48iXX-36" value="address" style="ellipse;whiteSpace=wrap;html=1;fontFamily=Helvetica;spacing=3;fontSize=20;" parent="1" vertex="1">
          <mxGeometry x="840" y="986" width="114" height="39" as="geometry" />
        </mxCell>
        <mxCell id="OhpfZ9pZvV3yuUP48iXX-37" style="edgeStyle=none;curved=1;rounded=0;orthogonalLoop=1;jettySize=auto;html=1;exitX=0;exitY=0.5;exitDx=0;exitDy=0;entryX=1;entryY=0.75;entryDx=0;entryDy=0;fontSize=20;startSize=8;endSize=8;fontFamily=Helvetica;spacing=3;" parent="1" source="OhpfZ9pZvV3yuUP48iXX-38" target="OhpfZ9pZvV3yuUP48iXX-6" edge="1">
          <mxGeometry relative="1" as="geometry" />
        </mxCell>
        <mxCell id="OhpfZ9pZvV3yuUP48iXX-38" value="agentname" style="ellipse;whiteSpace=wrap;html=1;fontFamily=Helvetica;spacing=3;fontSize=20;" parent="1" vertex="1">
          <mxGeometry x="1097" y="903" width="163" height="46" as="geometry" />
        </mxCell>
        <mxCell id="OhpfZ9pZvV3yuUP48iXX-39" style="edgeStyle=none;curved=1;rounded=0;orthogonalLoop=1;jettySize=auto;html=1;exitX=1;exitY=0;exitDx=0;exitDy=0;entryX=0.5;entryY=1;entryDx=0;entryDy=0;fontSize=20;startSize=8;endSize=8;fontFamily=Helvetica;spacing=3;" parent="1" source="OhpfZ9pZvV3yuUP48iXX-40" target="OhpfZ9pZvV3yuUP48iXX-59" edge="1">
          <mxGeometry relative="1" as="geometry">
            <mxPoint x="355.5" y="1046.5" as="targetPoint" />
          </mxGeometry>
        </mxCell>
        <mxCell id="OhpfZ9pZvV3yuUP48iXX-40" value="&lt;u&gt;sequenceid&lt;/u&gt;" style="ellipse;whiteSpace=wrap;html=1;fontFamily=Helvetica;spacing=3;fontSize=20;" parent="1" vertex="1">
          <mxGeometry x="149" y="1060.5" width="192" height="47.5" as="geometry" />
        </mxCell>
        <mxCell id="OhpfZ9pZvV3yuUP48iXX-41" value="Based&amp;nbsp;&lt;div style=&quot;font-size: 20px;&quot;&gt;on&lt;/div&gt;" style="rhombus;whiteSpace=wrap;html=1;fontFamily=Helvetica;spacing=3;fontSize=20;" parent="1" vertex="1">
          <mxGeometry x="490" y="430.5" width="150" height="90.5" as="geometry" />
        </mxCell>
        <mxCell id="yZGT_BtKmztro6Jw3oL_-6" style="edgeStyle=none;rounded=0;orthogonalLoop=1;jettySize=auto;html=1;exitX=0.5;exitY=1;exitDx=0;exitDy=0;entryX=0;entryY=0;entryDx=0;entryDy=0;" parent="1" source="OhpfZ9pZvV3yuUP48iXX-44" target="OhpfZ9pZvV3yuUP48iXX-64" edge="1">
          <mxGeometry relative="1" as="geometry" />
        </mxCell>
        <mxCell id="OhpfZ9pZvV3yuUP48iXX-44" value="Cutlist" style="rounded=0;whiteSpace=wrap;html=1;fontFamily=Helvetica;spacing=3;fontSize=20;" parent="1" vertex="1">
          <mxGeometry x="255" y="556.5" width="120" height="60" as="geometry" />
        </mxCell>
        <mxCell id="OhpfZ9pZvV3yuUP48iXX-45" style="edgeStyle=none;curved=1;rounded=0;orthogonalLoop=1;jettySize=auto;html=1;exitX=1;exitY=0.5;exitDx=0;exitDy=0;entryX=0.25;entryY=0;entryDx=0;entryDy=0;fontSize=20;startSize=8;endSize=8;fontFamily=Helvetica;spacing=3;" parent="1" source="OhpfZ9pZvV3yuUP48iXX-46" target="OhpfZ9pZvV3yuUP48iXX-44" edge="1">
          <mxGeometry relative="1" as="geometry" />
        </mxCell>
        <mxCell id="OhpfZ9pZvV3yuUP48iXX-46" value="&lt;u&gt;cutlistid&lt;/u&gt;" style="ellipse;whiteSpace=wrap;html=1;fontFamily=Helvetica;spacing=3;fontSize=20;" parent="1" vertex="1">
          <mxGeometry x="104" y="518" width="151" height="35" as="geometry" />
        </mxCell>
        <mxCell id="OhpfZ9pZvV3yuUP48iXX-47" style="edgeStyle=none;curved=1;rounded=0;orthogonalLoop=1;jettySize=auto;html=1;exitX=1;exitY=0.5;exitDx=0;exitDy=0;entryX=0;entryY=0.5;entryDx=0;entryDy=0;fontSize=20;startSize=8;endSize=8;fontFamily=Helvetica;spacing=3;" parent="1" source="OhpfZ9pZvV3yuUP48iXX-48" target="OhpfZ9pZvV3yuUP48iXX-44" edge="1">
          <mxGeometry relative="1" as="geometry" />
        </mxCell>
        <mxCell id="OhpfZ9pZvV3yuUP48iXX-48" value="takequant" style="ellipse;whiteSpace=wrap;html=1;fontFamily=Helvetica;spacing=3;fontSize=20;" parent="1" vertex="1">
          <mxGeometry x="40" y="622" width="203" height="50" as="geometry" />
        </mxCell>
        <mxCell id="OhpfZ9pZvV3yuUP48iXX-49" value="1" style="text;html=1;align=center;verticalAlign=middle;resizable=0;points=[];autosize=1;strokeColor=none;fillColor=none;fontSize=20;fontFamily=Helvetica;spacing=3;" parent="1" vertex="1">
          <mxGeometry x="595" y="501" width="31" height="38" as="geometry" />
        </mxCell>
        <mxCell id="OhpfZ9pZvV3yuUP48iXX-50" style="edgeStyle=none;curved=1;rounded=0;orthogonalLoop=1;jettySize=auto;html=1;exitX=0.5;exitY=0;exitDx=0;exitDy=0;entryX=0.5;entryY=1;entryDx=0;entryDy=0;fontSize=20;startSize=8;endSize=8;fontFamily=Helvetica;spacing=3;" parent="1" source="OhpfZ9pZvV3yuUP48iXX-52" target="OhpfZ9pZvV3yuUP48iXX-1" edge="1">
          <mxGeometry relative="1" as="geometry" />
        </mxCell>
        <mxCell id="yZGT_BtKmztro6Jw3oL_-3" style="edgeStyle=none;shape=link;rounded=0;orthogonalLoop=1;jettySize=auto;html=1;exitX=0;exitY=1;exitDx=0;exitDy=0;" parent="1" source="OhpfZ9pZvV3yuUP48iXX-52" target="OhpfZ9pZvV3yuUP48iXX-4" edge="1">
          <mxGeometry relative="1" as="geometry" />
        </mxCell>
        <mxCell id="OhpfZ9pZvV3yuUP48iXX-52" value="Belongs&amp;nbsp;&lt;div style=&quot;font-size: 20px;&quot;&gt;to&lt;/div&gt;" style="rhombus;whiteSpace=wrap;html=1;fontFamily=Helvetica;spacing=3;fontSize=20;" parent="1" vertex="1">
          <mxGeometry x="850" y="377" width="184" height="86" as="geometry" />
        </mxCell>
        <mxCell id="OhpfZ9pZvV3yuUP48iXX-53" value="N" style="text;html=1;align=center;verticalAlign=middle;resizable=0;points=[];autosize=1;strokeColor=none;fillColor=none;fontSize=20;fontFamily=Helvetica;spacing=3;" parent="1" vertex="1">
          <mxGeometry x="989" y="453" width="34" height="38" as="geometry" />
        </mxCell>
        <mxCell id="OhpfZ9pZvV3yuUP48iXX-54" value="1" style="text;html=1;align=center;verticalAlign=middle;resizable=0;points=[];autosize=1;strokeColor=none;fillColor=none;fontSize=20;fontFamily=Helvetica;spacing=3;" parent="1" vertex="1">
          <mxGeometry x="850" y="369" width="31" height="38" as="geometry" />
        </mxCell>
        <mxCell id="OhpfZ9pZvV3yuUP48iXX-55" value="Appears in" style="rhombus;whiteSpace=wrap;html=1;fontFamily=Helvetica;spacing=3;fontSize=20;" parent="1" vertex="1">
          <mxGeometry x="600" y="917" width="126.25" height="84" as="geometry" />
        </mxCell>
        <mxCell id="OhpfZ9pZvV3yuUP48iXX-56" value="Contains" style="rhombus;whiteSpace=wrap;html=1;fontFamily=Helvetica;spacing=3;fontSize=20;" parent="1" vertex="1">
          <mxGeometry x="553" y="676" width="120" height="108" as="geometry" />
        </mxCell>
        <mxCell id="OhpfZ9pZvV3yuUP48iXX-57" style="edgeStyle=none;curved=1;rounded=0;orthogonalLoop=1;jettySize=auto;html=1;exitX=1;exitY=0;exitDx=0;exitDy=0;entryX=0.14;entryY=0.762;entryDx=0;entryDy=0;entryPerimeter=0;fontSize=20;startSize=8;endSize=8;fontFamily=Helvetica;spacing=3;" parent="1" source="OhpfZ9pZvV3yuUP48iXX-55" target="OhpfZ9pZvV3yuUP48iXX-4" edge="1">
          <mxGeometry relative="1" as="geometry" />
        </mxCell>
        <mxCell id="yZGT_BtKmztro6Jw3oL_-4" style="edgeStyle=none;shape=link;rounded=0;orthogonalLoop=1;jettySize=auto;html=1;exitX=1;exitY=0.5;exitDx=0;exitDy=0;entryX=0;entryY=0.5;entryDx=0;entryDy=0;" parent="1" source="OhpfZ9pZvV3yuUP48iXX-59" target="OhpfZ9pZvV3yuUP48iXX-56" edge="1">
          <mxGeometry relative="1" as="geometry" />
        </mxCell>
        <mxCell id="OhpfZ9pZvV3yuUP48iXX-59" value="Take" style="rounded=0;whiteSpace=wrap;html=1;fontFamily=Helvetica;spacing=3;fontSize=20;" parent="1" vertex="1">
          <mxGeometry x="306.5" y="943" width="120" height="60" as="geometry" />
        </mxCell>
        <mxCell id="OhpfZ9pZvV3yuUP48iXX-60" style="edgeStyle=none;curved=1;rounded=0;orthogonalLoop=1;jettySize=auto;html=1;exitX=1;exitY=0;exitDx=0;exitDy=0;entryX=0;entryY=0.5;entryDx=0;entryDy=0;fontSize=20;startSize=8;endSize=8;fontFamily=Helvetica;spacing=3;" parent="1" source="OhpfZ9pZvV3yuUP48iXX-61" target="OhpfZ9pZvV3yuUP48iXX-2" edge="1">
          <mxGeometry relative="1" as="geometry" />
        </mxCell>
        <mxCell id="OhpfZ9pZvV3yuUP48iXX-61" value="Used in" style="rhombus;whiteSpace=wrap;html=1;fontFamily=Helvetica;spacing=3;fontSize=20;" parent="1" vertex="1">
          <mxGeometry x="238" y="182" width="137" height="80" as="geometry" />
        </mxCell>
        <mxCell id="OhpfZ9pZvV3yuUP48iXX-62" style="edgeStyle=none;curved=1;rounded=0;orthogonalLoop=1;jettySize=auto;html=1;exitX=1;exitY=1;exitDx=0;exitDy=0;entryX=0.5;entryY=0;entryDx=0;entryDy=0;fontSize=20;startSize=8;endSize=8;fontFamily=Helvetica;spacing=3;" parent="1" source="OhpfZ9pZvV3yuUP48iXX-64" target="OhpfZ9pZvV3yuUP48iXX-59" edge="1">
          <mxGeometry relative="1" as="geometry" />
        </mxCell>
        <mxCell id="OhpfZ9pZvV3yuUP48iXX-64" value="Contains" style="rhombus;whiteSpace=wrap;html=1;fontFamily=Helvetica;spacing=3;fontSize=20;" parent="1" vertex="1">
          <mxGeometry x="273" y="739.5" width="140" height="80" as="geometry" />
        </mxCell>
        <mxCell id="OhpfZ9pZvV3yuUP48iXX-65" value="N" style="text;html=1;align=center;verticalAlign=middle;whiteSpace=wrap;rounded=0;fontSize=20;fontFamily=Helvetica;spacing=3;" parent="1" vertex="1">
          <mxGeometry x="238" y="733" width="60" height="30" as="geometry" />
        </mxCell>
        <mxCell id="OhpfZ9pZvV3yuUP48iXX-66" value="1" style="text;html=1;align=center;verticalAlign=middle;whiteSpace=wrap;rounded=0;fontSize=20;fontFamily=Helvetica;spacing=3;" parent="1" vertex="1">
          <mxGeometry x="364" y="812" width="60" height="30" as="geometry" />
        </mxCell>
        <mxCell id="OhpfZ9pZvV3yuUP48iXX-67" value="1" style="text;html=1;align=center;verticalAlign=middle;whiteSpace=wrap;rounded=0;fontSize=20;fontFamily=Helvetica;spacing=3;" parent="1" vertex="1">
          <mxGeometry x="356" y="168.5" width="60" height="30" as="geometry" />
        </mxCell>
        <mxCell id="OhpfZ9pZvV3yuUP48iXX-68" value="N" style="text;html=1;align=center;verticalAlign=middle;resizable=0;points=[];autosize=1;strokeColor=none;fillColor=none;fontSize=20;fontFamily=Helvetica;spacing=3;" parent="1" vertex="1">
          <mxGeometry x="276" y="254.5" width="34" height="38" as="geometry" />
        </mxCell>
        <mxCell id="OhpfZ9pZvV3yuUP48iXX-69" value="1" style="text;html=1;align=center;verticalAlign=middle;whiteSpace=wrap;rounded=0;fontSize=20;fontFamily=Helvetica;spacing=3;" parent="1" vertex="1">
          <mxGeometry x="619.5" y="679.5" width="60" height="30" as="geometry" />
        </mxCell>
        <mxCell id="OhpfZ9pZvV3yuUP48iXX-70" value="N" style="text;html=1;align=center;verticalAlign=middle;resizable=0;points=[];autosize=1;strokeColor=none;fillColor=none;fontSize=20;fontFamily=Helvetica;spacing=3;" parent="1" vertex="1">
          <mxGeometry x="548.5" y="753.5" width="34" height="38" as="geometry" />
        </mxCell>
        <mxCell id="OhpfZ9pZvV3yuUP48iXX-71" value="N" style="text;html=1;align=center;verticalAlign=middle;whiteSpace=wrap;rounded=0;fontSize=20;fontFamily=Helvetica;spacing=3;" parent="1" vertex="1">
          <mxGeometry x="699" y="983" width="60" height="30" as="geometry" />
        </mxCell>
        <mxCell id="OhpfZ9pZvV3yuUP48iXX-72" value="N" style="text;html=1;align=center;verticalAlign=middle;whiteSpace=wrap;rounded=0;fontSize=20;fontFamily=Helvetica;spacing=3;" parent="1" vertex="1">
          <mxGeometry x="619.5" y="882" width="60" height="30" as="geometry" />
        </mxCell>
        <mxCell id="OhpfZ9pZvV3yuUP48iXX-74" value="1" style="text;html=1;align=center;verticalAlign=middle;resizable=0;points=[];autosize=1;strokeColor=none;fillColor=none;fontSize=20;fontFamily=Helvetica;spacing=3;" parent="1" vertex="1">
          <mxGeometry x="485" y="377" width="31" height="38" as="geometry" />
        </mxCell>
        <mxCell id="yZGT_BtKmztro6Jw3oL_-1" style="edgeStyle=none;shape=link;rounded=0;orthogonalLoop=1;jettySize=auto;html=1;exitX=0;exitY=1;exitDx=0;exitDy=0;entryX=0.478;entryY=0.219;entryDx=0;entryDy=0;entryPerimeter=0;" parent="1" source="OhpfZ9pZvV3yuUP48iXX-61" target="OhpfZ9pZvV3yuUP48iXX-44" edge="1">
          <mxGeometry relative="1" as="geometry" />
        </mxCell>
      </root>
    </mxGraphModel>
  </diagram>
</mxfile>
